<mxfile host="Electron" agent="Mozilla/5.0 (Windows NT 10.0; Win64; x64) AppleWebKit/537.36 (KHTML, like Gecko) draw.io/27.0.9 Chrome/134.0.6998.205 Electron/35.4.0 Safari/537.36" version="27.0.9">
  <diagram name="Page-1" id="zc7idN3emRvfoX6ZYLuS">
    <mxGraphModel dx="1188" dy="729" grid="1" gridSize="10" guides="1" tooltips="1" connect="1" arrows="1" fold="1" page="1" pageScale="1" pageWidth="850" pageHeight="1100" math="0" shadow="0">
      <root>
        <mxCell id="0" />
        <mxCell id="1" parent="0" />
        <mxCell id="cTS62npf6Q-dDBDRQO1k-1" value="&lt;b&gt;&lt;font style=&quot;font-size: 17px;&quot; face=&quot;Comic Sans MS&quot;&gt;Integration Model -&amp;nbsp;&lt;/font&gt;&lt;span style=&quot;font-family: &amp;quot;Comic Sans MS&amp;quot;;&quot;&gt;&lt;font style=&quot;font-size: 14px;&quot;&gt;how tables are related&lt;/font&gt;&lt;/span&gt;&lt;/b&gt;" style="text;html=1;align=center;verticalAlign=middle;resizable=0;points=[];autosize=1;strokeColor=none;fillColor=none;" parent="1" vertex="1">
          <mxGeometry x="190" y="40" width="350" height="30" as="geometry" />
        </mxCell>
        <mxCell id="cTS62npf6Q-dDBDRQO1k-3" value="&lt;b&gt;crm_cust_info&lt;/b&gt;" style="swimlane;fontStyle=0;childLayout=stackLayout;horizontal=1;startSize=30;horizontalStack=0;resizeParent=1;resizeParentMax=0;resizeLast=0;collapsible=1;marginBottom=0;whiteSpace=wrap;html=1;rounded=1;fillColor=#dae8fc;strokeColor=#6c8ebf;fontSize=14;fontFamily=Comic Sans MS;fontColor=#000000;" parent="1" vertex="1">
          <mxGeometry x="560" y="440" width="180" height="110" as="geometry" />
        </mxCell>
        <mxCell id="cTS62npf6Q-dDBDRQO1k-4" value="cst_id" style="text;strokeColor=none;fillColor=none;align=left;verticalAlign=middle;spacingLeft=4;spacingRight=4;overflow=hidden;points=[[0,0.5],[1,0.5]];portConstraint=eastwest;rotatable=0;whiteSpace=wrap;html=1;fontSize=14;fontFamily=Comic Sans MS;fontColor=#FFFFFF;" parent="cTS62npf6Q-dDBDRQO1k-3" vertex="1">
          <mxGeometry y="30" width="180" height="30" as="geometry" />
        </mxCell>
        <mxCell id="cTS62npf6Q-dDBDRQO1k-29" value="cst_key" style="text;strokeColor=none;fillColor=none;align=left;verticalAlign=middle;spacingLeft=4;spacingRight=4;overflow=hidden;points=[[0,0.5],[1,0.5]];portConstraint=eastwest;rotatable=0;whiteSpace=wrap;html=1;fontSize=14;fontFamily=Comic Sans MS;fontColor=#FFFFFF;" parent="cTS62npf6Q-dDBDRQO1k-3" vertex="1">
          <mxGeometry y="60" width="180" height="30" as="geometry" />
        </mxCell>
        <mxCell id="PR01MkaVwKneAZwIeEu_-2" value="&lt;font face=&quot;Comic Sans MS&quot;&gt;&lt;b&gt;Customer&lt;/b&gt;&lt;/font&gt;" style="text;html=1;strokeColor=#006EAF;fillColor=#1ba1e2;align=center;verticalAlign=middle;whiteSpace=wrap;overflow=hidden;fontColor=#ffffff;" vertex="1" parent="cTS62npf6Q-dDBDRQO1k-3">
          <mxGeometry y="90" width="180" height="20" as="geometry" />
        </mxCell>
        <mxCell id="cTS62npf6Q-dDBDRQO1k-7" value="&lt;font style=&quot;background-color: light-dark(#ffffff, var(--ge-dark-color, #121212));&quot; face=&quot;Comic Sans MS&quot;&gt;&lt;b&gt;Customer Information&lt;/b&gt;&lt;/font&gt;" style="text;html=1;align=center;verticalAlign=middle;whiteSpace=wrap;rounded=0;fontColor=#FFFFFF;" parent="1" vertex="1">
          <mxGeometry x="555" y="412.5" width="190" height="20" as="geometry" />
        </mxCell>
        <mxCell id="cTS62npf6Q-dDBDRQO1k-8" value="&lt;font style=&quot;font-size: 14px;&quot;&gt;&lt;b&gt;crm_prd_info&lt;/b&gt;&lt;/font&gt;" style="swimlane;fontStyle=0;childLayout=stackLayout;horizontal=1;startSize=30;horizontalStack=0;resizeParent=1;resizeParentMax=0;resizeLast=0;collapsible=1;marginBottom=0;whiteSpace=wrap;html=1;rounded=1;fillColor=#dae8fc;strokeColor=#6c8ebf;fontSize=22;fontFamily=Comic Sans MS;fontColor=#000000;" parent="1" vertex="1">
          <mxGeometry x="560" y="260" width="170" height="90" as="geometry" />
        </mxCell>
        <mxCell id="cTS62npf6Q-dDBDRQO1k-9" value="prd_key" style="text;strokeColor=none;fillColor=none;align=left;verticalAlign=middle;spacingLeft=4;spacingRight=4;overflow=hidden;points=[[0,0.5],[1,0.5]];portConstraint=eastwest;rotatable=0;whiteSpace=wrap;html=1;fontSize=14;fontFamily=Comic Sans MS;fontColor=#FFFFFF;" parent="cTS62npf6Q-dDBDRQO1k-8" vertex="1">
          <mxGeometry y="30" width="170" height="40" as="geometry" />
        </mxCell>
        <mxCell id="UtkV4yjvDIyLAKiQFSfC-12" value="&lt;font face=&quot;Comic Sans MS&quot;&gt;&lt;b&gt;Product&lt;/b&gt;&lt;/font&gt;" style="text;html=1;strokeColor=#b85450;fillColor=#f8cecc;align=center;verticalAlign=middle;whiteSpace=wrap;overflow=hidden;fontColor=#000000;" parent="cTS62npf6Q-dDBDRQO1k-8" vertex="1">
          <mxGeometry y="70" width="170" height="20" as="geometry" />
        </mxCell>
        <mxCell id="cTS62npf6Q-dDBDRQO1k-10" value="&lt;font face=&quot;Comic Sans MS&quot;&gt;Current &amp;amp; History Product Information&lt;/font&gt;" style="text;html=1;align=center;verticalAlign=middle;whiteSpace=wrap;rounded=0;fontStyle=1;fontColor=#FFFFFF;" parent="1" vertex="1">
          <mxGeometry x="520" y="230" width="240" height="20" as="geometry" />
        </mxCell>
        <mxCell id="cTS62npf6Q-dDBDRQO1k-15" value="&lt;font&gt;&lt;b&gt;crm_sales_details&lt;/b&gt;&lt;/font&gt;" style="swimlane;fontStyle=0;childLayout=stackLayout;horizontal=1;startSize=30;horizontalStack=0;resizeParent=1;resizeParentMax=0;resizeLast=0;collapsible=1;marginBottom=0;whiteSpace=wrap;html=1;rounded=1;fillColor=#dae8fc;strokeColor=#6c8ebf;fontSize=14;fontFamily=Comic Sans MS;fontColor=#000000;" parent="1" vertex="1">
          <mxGeometry x="246" y="330" width="174" height="110" as="geometry" />
        </mxCell>
        <mxCell id="cTS62npf6Q-dDBDRQO1k-16" value="prd_key&lt;div&gt;&lt;br&gt;&lt;/div&gt;" style="text;strokeColor=none;fillColor=none;align=left;verticalAlign=middle;spacingLeft=4;spacingRight=4;overflow=hidden;points=[[0,0.5],[1,0.5]];portConstraint=eastwest;rotatable=0;whiteSpace=wrap;html=1;fontSize=14;fontFamily=Comic Sans MS;fontStyle=0;fontColor=#FFFFFF;" parent="cTS62npf6Q-dDBDRQO1k-15" vertex="1">
          <mxGeometry y="30" width="174" height="30" as="geometry" />
        </mxCell>
        <mxCell id="cTS62npf6Q-dDBDRQO1k-21" value="&lt;div&gt;cst_id&lt;/div&gt;" style="text;strokeColor=none;fillColor=none;align=left;verticalAlign=middle;spacingLeft=4;spacingRight=4;overflow=hidden;points=[[0,0.5],[1,0.5]];portConstraint=eastwest;rotatable=0;whiteSpace=wrap;html=1;fontSize=14;fontFamily=Comic Sans MS;fontStyle=0;fontColor=#FFFFFF;" parent="cTS62npf6Q-dDBDRQO1k-15" vertex="1">
          <mxGeometry y="60" width="174" height="30" as="geometry" />
        </mxCell>
        <mxCell id="PR01MkaVwKneAZwIeEu_-1" value="&lt;font face=&quot;Comic Sans MS&quot;&gt;&lt;b&gt;Sales&lt;/b&gt;&lt;/font&gt;" style="text;html=1;strokeColor=#2D7600;fillColor=#60a917;align=center;verticalAlign=middle;whiteSpace=wrap;overflow=hidden;fontColor=#ffffff;" vertex="1" parent="cTS62npf6Q-dDBDRQO1k-15">
          <mxGeometry y="90" width="174" height="20" as="geometry" />
        </mxCell>
        <mxCell id="cTS62npf6Q-dDBDRQO1k-17" value="&lt;font face=&quot;Comic Sans MS&quot;&gt;&lt;b&gt;Transactional Records about Sales &amp;amp; Orders&lt;/b&gt;&lt;/font&gt;" style="text;html=1;align=center;verticalAlign=middle;whiteSpace=wrap;rounded=0;fontColor=#FFFFFF;" parent="1" vertex="1">
          <mxGeometry x="200" y="300" width="300" height="20" as="geometry" />
        </mxCell>
        <mxCell id="cTS62npf6Q-dDBDRQO1k-22" style="edgeStyle=orthogonalEdgeStyle;rounded=0;orthogonalLoop=1;jettySize=auto;html=1;entryX=0;entryY=0.5;entryDx=0;entryDy=0;fontColor=#000000;" parent="1" source="cTS62npf6Q-dDBDRQO1k-21" target="cTS62npf6Q-dDBDRQO1k-4" edge="1">
          <mxGeometry relative="1" as="geometry" />
        </mxCell>
        <mxCell id="cTS62npf6Q-dDBDRQO1k-23" style="edgeStyle=orthogonalEdgeStyle;rounded=0;orthogonalLoop=1;jettySize=auto;html=1;entryX=0;entryY=0.5;entryDx=0;entryDy=0;fontColor=#000000;" parent="1" source="cTS62npf6Q-dDBDRQO1k-16" target="cTS62npf6Q-dDBDRQO1k-9" edge="1">
          <mxGeometry relative="1" as="geometry" />
        </mxCell>
        <mxCell id="cTS62npf6Q-dDBDRQO1k-26" value="&lt;font style=&quot;font-size: 14px;&quot;&gt;&lt;b&gt;erp_cust_az12&lt;/b&gt;&lt;/font&gt;" style="swimlane;fontStyle=0;childLayout=stackLayout;horizontal=1;startSize=30;horizontalStack=0;resizeParent=1;resizeParentMax=0;resizeLast=0;collapsible=1;marginBottom=0;whiteSpace=wrap;html=1;rounded=1;fillColor=#ffe6cc;strokeColor=#d79b00;fontSize=16;fontFamily=Comic Sans MS;fontColor=#000000;" parent="1" vertex="1">
          <mxGeometry x="930" y="352.5" width="190" height="80" as="geometry" />
        </mxCell>
        <mxCell id="cTS62npf6Q-dDBDRQO1k-27" value="&lt;font style=&quot;font-size: 14px;&quot;&gt;cid&lt;/font&gt;" style="text;strokeColor=none;fillColor=none;align=left;verticalAlign=middle;spacingLeft=4;spacingRight=4;overflow=hidden;points=[[0,0.5],[1,0.5]];portConstraint=eastwest;rotatable=0;whiteSpace=wrap;html=1;fontSize=16;fontFamily=Comic Sans MS;fontColor=#FFFFFF;" parent="cTS62npf6Q-dDBDRQO1k-26" vertex="1">
          <mxGeometry y="30" width="190" height="30" as="geometry" />
        </mxCell>
        <mxCell id="PR01MkaVwKneAZwIeEu_-3" value="&lt;font face=&quot;Comic Sans MS&quot;&gt;&lt;b&gt;Customer&lt;/b&gt;&lt;/font&gt;" style="text;html=1;strokeColor=#006EAF;fillColor=#1ba1e2;align=center;verticalAlign=middle;whiteSpace=wrap;overflow=hidden;fontColor=#ffffff;" vertex="1" parent="cTS62npf6Q-dDBDRQO1k-26">
          <mxGeometry y="60" width="190" height="20" as="geometry" />
        </mxCell>
        <mxCell id="cTS62npf6Q-dDBDRQO1k-28" value="&lt;font face=&quot;Comic Sans MS&quot; style=&quot;background-color: light-dark(#ffffff, var(--ge-dark-color, #121212)); font-size: 12px;&quot;&gt;&lt;b&gt;Extra Customer Information&lt;/b&gt;&lt;/font&gt;" style="text;html=1;align=center;verticalAlign=middle;whiteSpace=wrap;rounded=0;fontSize=16;fontColor=#FFFFFF;" parent="1" vertex="1">
          <mxGeometry x="925" y="330" width="190" height="20" as="geometry" />
        </mxCell>
        <mxCell id="cTS62npf6Q-dDBDRQO1k-30" style="edgeStyle=orthogonalEdgeStyle;rounded=0;orthogonalLoop=1;jettySize=auto;html=1;entryX=1;entryY=0.5;entryDx=0;entryDy=0;fontColor=#000000;" parent="1" source="cTS62npf6Q-dDBDRQO1k-27" target="cTS62npf6Q-dDBDRQO1k-29" edge="1">
          <mxGeometry relative="1" as="geometry" />
        </mxCell>
        <mxCell id="cTS62npf6Q-dDBDRQO1k-35" value="&lt;font style=&quot;font-size: 14px;&quot;&gt;&lt;b&gt;erp_loc_a101&lt;/b&gt;&lt;/font&gt;" style="swimlane;fontStyle=0;childLayout=stackLayout;horizontal=1;startSize=30;horizontalStack=0;resizeParent=1;resizeParentMax=0;resizeLast=0;collapsible=1;marginBottom=0;whiteSpace=wrap;html=1;rounded=1;fillColor=#ffe6cc;strokeColor=#d79b00;fontSize=16;fontFamily=Comic Sans MS;fontColor=#000000;" parent="1" vertex="1">
          <mxGeometry x="930" y="480" width="190" height="80" as="geometry" />
        </mxCell>
        <mxCell id="cTS62npf6Q-dDBDRQO1k-36" value="&lt;font style=&quot;font-size: 14px;&quot;&gt;cid&lt;/font&gt;" style="text;strokeColor=none;fillColor=none;align=left;verticalAlign=middle;spacingLeft=4;spacingRight=4;overflow=hidden;points=[[0,0.5],[1,0.5]];portConstraint=eastwest;rotatable=0;whiteSpace=wrap;html=1;fontSize=16;fontFamily=Comic Sans MS;fontColor=#FFFFFF;" parent="cTS62npf6Q-dDBDRQO1k-35" vertex="1">
          <mxGeometry y="30" width="190" height="30" as="geometry" />
        </mxCell>
        <mxCell id="PR01MkaVwKneAZwIeEu_-4" value="&lt;font face=&quot;Comic Sans MS&quot;&gt;&lt;b&gt;Customer&lt;/b&gt;&lt;/font&gt;" style="text;html=1;strokeColor=#006EAF;fillColor=#1ba1e2;align=center;verticalAlign=middle;whiteSpace=wrap;overflow=hidden;fontColor=#ffffff;" vertex="1" parent="cTS62npf6Q-dDBDRQO1k-35">
          <mxGeometry y="60" width="190" height="20" as="geometry" />
        </mxCell>
        <mxCell id="cTS62npf6Q-dDBDRQO1k-37" value="&lt;font face=&quot;Comic Sans MS&quot; style=&quot;background-color: light-dark(#ffffff, var(--ge-dark-color, #121212)); font-size: 12px;&quot;&gt;&lt;b&gt;Customer Location(Country)&lt;/b&gt;&lt;/font&gt;" style="text;html=1;align=center;verticalAlign=middle;whiteSpace=wrap;rounded=0;fontSize=16;fontColor=#FFFFFF;" parent="1" vertex="1">
          <mxGeometry x="920" y="450" width="200" height="20" as="geometry" />
        </mxCell>
        <mxCell id="cTS62npf6Q-dDBDRQO1k-38" style="edgeStyle=orthogonalEdgeStyle;rounded=0;orthogonalLoop=1;jettySize=auto;html=1;fontColor=#000000;" parent="1" source="cTS62npf6Q-dDBDRQO1k-36" target="cTS62npf6Q-dDBDRQO1k-29" edge="1">
          <mxGeometry relative="1" as="geometry" />
        </mxCell>
        <mxCell id="cTS62npf6Q-dDBDRQO1k-39" value="&lt;font&gt;&lt;b&gt;erp_px_cat_g1v2&lt;/b&gt;&lt;/font&gt;" style="swimlane;fontStyle=0;childLayout=stackLayout;horizontal=1;startSize=30;horizontalStack=0;resizeParent=1;resizeParentMax=0;resizeLast=0;collapsible=1;marginBottom=0;whiteSpace=wrap;html=1;rounded=1;fillColor=#ffe6cc;strokeColor=#d79b00;fontSize=14;fontFamily=Comic Sans MS;fontColor=#000000;" parent="1" vertex="1">
          <mxGeometry x="930" y="230" width="190" height="90" as="geometry" />
        </mxCell>
        <mxCell id="cTS62npf6Q-dDBDRQO1k-40" value="&lt;font style=&quot;font-size: 14px;&quot;&gt;id&lt;/font&gt;" style="text;strokeColor=none;fillColor=none;align=left;verticalAlign=middle;spacingLeft=4;spacingRight=4;overflow=hidden;points=[[0,0.5],[1,0.5]];portConstraint=eastwest;rotatable=0;whiteSpace=wrap;html=1;fontSize=16;fontFamily=Comic Sans MS;fontColor=#FFFFFF;" parent="cTS62npf6Q-dDBDRQO1k-39" vertex="1">
          <mxGeometry y="30" width="190" height="40" as="geometry" />
        </mxCell>
        <mxCell id="UtkV4yjvDIyLAKiQFSfC-14" value="&lt;font face=&quot;Comic Sans MS&quot;&gt;&lt;b&gt;Product&lt;/b&gt;&lt;/font&gt;" style="text;html=1;strokeColor=#b85450;fillColor=#f8cecc;align=center;verticalAlign=middle;whiteSpace=wrap;overflow=hidden;fontColor=#000000;" parent="cTS62npf6Q-dDBDRQO1k-39" vertex="1">
          <mxGeometry y="70" width="190" height="20" as="geometry" />
        </mxCell>
        <mxCell id="cTS62npf6Q-dDBDRQO1k-41" value="&lt;font style=&quot;background-color: light-dark(#ffffff, var(--ge-dark-color, #121212));&quot; face=&quot;Comic Sans MS&quot;&gt;&lt;b&gt;Product Categories&lt;/b&gt;&lt;/font&gt;" style="text;html=1;align=center;verticalAlign=middle;whiteSpace=wrap;rounded=0;fontColor=#FFFFFF;" parent="1" vertex="1">
          <mxGeometry x="935" y="200" width="175" height="20" as="geometry" />
        </mxCell>
        <mxCell id="cTS62npf6Q-dDBDRQO1k-42" style="edgeStyle=orthogonalEdgeStyle;rounded=0;orthogonalLoop=1;jettySize=auto;html=1;entryX=0;entryY=0.5;entryDx=0;entryDy=0;fontColor=#000000;" parent="1" source="cTS62npf6Q-dDBDRQO1k-9" target="cTS62npf6Q-dDBDRQO1k-40" edge="1">
          <mxGeometry relative="1" as="geometry" />
        </mxCell>
        <mxCell id="cTS62npf6Q-dDBDRQO1k-52" value="&lt;font face=&quot;Comic Sans MS&quot; style=&quot;font-size: 16px;&quot;&gt;ERP&lt;/font&gt;" style="rounded=1;whiteSpace=wrap;html=1;fillColor=#ffe6cc;strokeColor=#d79b00;fontStyle=1;fontColor=#000000;" parent="1" vertex="1">
          <mxGeometry x="950" y="140" width="120" height="30" as="geometry" />
        </mxCell>
        <mxCell id="UtkV4yjvDIyLAKiQFSfC-9" value="&lt;font face=&quot;Comic Sans MS&quot; style=&quot;font-size: 16px;&quot;&gt;&lt;b&gt;CRM&lt;/b&gt;&lt;/font&gt;" style="rounded=1;whiteSpace=wrap;html=1;fillColor=#dae8fc;strokeColor=#6c8ebf;fontColor=#000000;" parent="1" vertex="1">
          <mxGeometry x="410" y="150" width="97" height="30" as="geometry" />
        </mxCell>
      </root>
    </mxGraphModel>
  </diagram>
</mxfile>
